<?xml version="1.0" encoding="utf-8" ?>
<svg baseProfile="tiny" height="100%" version="1.2" width="100%" xmlns="http://www.w3.org/2000/svg" xmlns:ev="http://www.w3.org/2001/xml-events" xmlns:xlink="http://www.w3.org/1999/xlink"><defs /><polygon fill="black" points="98,37 97,38 97,43 98,44 98,46 100,48 100,49 101,49 103,51 104,51 105,52 111,52 112,53 111,54 110,54 109,55 103,55 102,54 101,55 100,55 99,56 98,56 97,57 96,57 95,58 94,58 92,60 91,60 87,64 86,64 86,65 81,70 81,71 79,73 79,74 78,75 78,76 77,77 77,78 76,79 76,81 75,82 75,84 74,85 74,89 73,90 73,97 74,96 74,95 75,94 75,93 76,92 76,91 78,89 79,90 79,92 78,93 78,95 77,96 77,99 76,100 76,117 77,118 77,120 78,121 78,123 79,124 79,125 80,126 80,127 81,128 81,129 84,132 84,128 83,127 83,125 84,124 84,122 85,121 86,122 86,126 87,127 87,129 88,130 88,131 89,132 89,134 91,136 91,137 92,138 92,139 98,145 99,145 101,147 102,147 103,148 104,148 105,149 106,149 107,150 109,150 110,151 114,151 115,152 116,152 115,152 111,148 111,147 109,145 110,144 111,144 113,146 114,146 115,147 116,147 117,148 118,148 119,149 121,149 122,150 125,150 126,151 134,151 135,152 136,151 143,151 144,150 146,150 147,149 148,149 149,148 148,147 146,147 145,146 143,146 141,144 140,144 134,138 134,137 133,136 133,135 132,134 132,133 131,132 131,129 130,128 130,120 131,119 131,117 132,116 132,115 133,114 133,113 135,111 135,110 137,108 131,108 130,107 128,107 127,106 125,106 124,105 123,105 121,103 120,103 114,97 114,96 112,94 112,93 111,92 111,90 112,89 113,90 113,91 114,92 114,93 117,96 117,97 119,99 120,99 122,101 123,101 124,102 125,102 126,103 129,103 130,104 143,104 144,103 146,103 147,102 149,102 150,101 157,101 158,102 161,102 162,103 163,103 164,104 165,104 167,106 168,106 170,108 172,108 173,109 177,109 178,108 179,108 180,107 181,107 184,104 184,102 185,101 185,96 184,95 184,94 183,93 183,91 182,90 182,88 181,87 181,86 180,85 180,90 178,92 177,91 177,88 176,87 176,86 175,85 175,86 174,87 174,90 173,91 173,93 172,94 171,94 170,93 167,93 166,92 163,92 162,91 156,91 155,90 156,89 157,89 156,88 155,88 154,87 154,86 153,85 153,81 154,80 154,78 156,76 156,75 161,70 162,70 161,70 160,71 158,71 157,72 156,72 153,75 152,74 152,73 156,69 157,69 158,68 160,68 161,67 170,67 171,68 174,68 176,70 176,73 175,74 175,77 176,76 177,76 180,73 180,72 181,71 181,70 182,69 183,69 184,70 184,75 183,76 184,76 186,74 186,73 187,72 187,70 189,68 189,67 190,66 190,65 191,64 191,61 192,60 192,58 191,57 191,56 190,55 189,55 185,51 186,50 187,50 188,51 189,51 190,52 191,52 192,53 192,52 190,50 189,50 187,48 186,48 185,47 184,47 183,46 182,46 181,45 179,45 178,44 175,44 174,43 165,43 164,42 162,42 161,41 159,41 158,40 155,40 154,39 152,39 151,38 143,38 142,39 138,39 137,40 134,40 133,41 130,41 129,42 116,42 115,41 110,41 109,40 106,40 105,39 103,39 102,38 100,38 99,37" /></svg>